<svg id="visual" viewBox="0 0 1200 540" width="1200" height="540" xmlns="http://www.w3.org/2000/svg" xmlns:xlink="http://www.w3.org/1999/xlink" version="1.1"><rect x="0" y="0" width="1200" height="540" fill="#FFFFFF"></rect><defs><linearGradient id="grad1_0" x1="55%" y1="0%" x2="100%" y2="100%"><stop offset="5.555555555555554%" stop-color="#0066ff" stop-opacity="1"></stop><stop offset="94.44444444444446%" stop-color="#0066ff" stop-opacity="1"></stop></linearGradient></defs><defs><linearGradient id="grad1_1" x1="55%" y1="0%" x2="100%" y2="100%"><stop offset="5.555555555555554%" stop-color="#0066ff" stop-opacity="1"></stop><stop offset="94.44444444444446%" stop-color="#5a7aff" stop-opacity="1"></stop></linearGradient></defs><defs><linearGradient id="grad1_2" x1="55%" y1="0%" x2="100%" y2="100%"><stop offset="5.555555555555554%" stop-color="#808eff" stop-opacity="1"></stop><stop offset="94.44444444444446%" stop-color="#5a7aff" stop-opacity="1"></stop></linearGradient></defs><defs><linearGradient id="grad1_3" x1="55%" y1="0%" x2="100%" y2="100%"><stop offset="5.555555555555554%" stop-color="#808eff" stop-opacity="1"></stop><stop offset="94.44444444444446%" stop-color="#9ea4ff" stop-opacity="1"></stop></linearGradient></defs><defs><linearGradient id="grad1_4" x1="55%" y1="0%" x2="100%" y2="100%"><stop offset="5.555555555555554%" stop-color="#b9baff" stop-opacity="1"></stop><stop offset="94.44444444444446%" stop-color="#9ea4ff" stop-opacity="1"></stop></linearGradient></defs><defs><linearGradient id="grad1_5" x1="55%" y1="0%" x2="100%" y2="100%"><stop offset="5.555555555555554%" stop-color="#b9baff" stop-opacity="1"></stop><stop offset="94.44444444444446%" stop-color="#d2d0ff" stop-opacity="1"></stop></linearGradient></defs><defs><linearGradient id="grad1_6" x1="55%" y1="0%" x2="100%" y2="100%"><stop offset="5.555555555555554%" stop-color="#e9e7ff" stop-opacity="1"></stop><stop offset="94.44444444444446%" stop-color="#d2d0ff" stop-opacity="1"></stop></linearGradient></defs><defs><linearGradient id="grad1_7" x1="55%" y1="0%" x2="100%" y2="100%"><stop offset="5.555555555555554%" stop-color="#e9e7ff" stop-opacity="1"></stop><stop offset="94.44444444444446%" stop-color="#ffffff" stop-opacity="1"></stop></linearGradient></defs><defs><linearGradient id="grad2_0" x1="0%" y1="0%" x2="45%" y2="100%"><stop offset="5.555555555555554%" stop-color="#0066ff" stop-opacity="1"></stop><stop offset="94.44444444444446%" stop-color="#0066ff" stop-opacity="1"></stop></linearGradient></defs><defs><linearGradient id="grad2_1" x1="0%" y1="0%" x2="45%" y2="100%"><stop offset="5.555555555555554%" stop-color="#5a7aff" stop-opacity="1"></stop><stop offset="94.44444444444446%" stop-color="#0066ff" stop-opacity="1"></stop></linearGradient></defs><defs><linearGradient id="grad2_2" x1="0%" y1="0%" x2="45%" y2="100%"><stop offset="5.555555555555554%" stop-color="#5a7aff" stop-opacity="1"></stop><stop offset="94.44444444444446%" stop-color="#808eff" stop-opacity="1"></stop></linearGradient></defs><defs><linearGradient id="grad2_3" x1="0%" y1="0%" x2="45%" y2="100%"><stop offset="5.555555555555554%" stop-color="#9ea4ff" stop-opacity="1"></stop><stop offset="94.44444444444446%" stop-color="#808eff" stop-opacity="1"></stop></linearGradient></defs><defs><linearGradient id="grad2_4" x1="0%" y1="0%" x2="45%" y2="100%"><stop offset="5.555555555555554%" stop-color="#9ea4ff" stop-opacity="1"></stop><stop offset="94.44444444444446%" stop-color="#b9baff" stop-opacity="1"></stop></linearGradient></defs><defs><linearGradient id="grad2_5" x1="0%" y1="0%" x2="45%" y2="100%"><stop offset="5.555555555555554%" stop-color="#d2d0ff" stop-opacity="1"></stop><stop offset="94.44444444444446%" stop-color="#b9baff" stop-opacity="1"></stop></linearGradient></defs><defs><linearGradient id="grad2_6" x1="0%" y1="0%" x2="45%" y2="100%"><stop offset="5.555555555555554%" stop-color="#d2d0ff" stop-opacity="1"></stop><stop offset="94.44444444444446%" stop-color="#e9e7ff" stop-opacity="1"></stop></linearGradient></defs><defs><linearGradient id="grad2_7" x1="0%" y1="0%" x2="45%" y2="100%"><stop offset="5.555555555555554%" stop-color="#ffffff" stop-opacity="1"></stop><stop offset="94.44444444444446%" stop-color="#e9e7ff" stop-opacity="1"></stop></linearGradient></defs><g transform="translate(1200, 0)"><path d="M0 405C-66.1 385.8 -132.3 366.5 -192 332.6C-251.7 298.6 -305 249.9 -332.6 192C-360.1 134.1 -362.1 67.1 -364 0L0 0Z" fill="#f4f3ff"></path><path d="M0 354.4C-57.9 337.5 -115.8 320.7 -168 291C-220.2 261.3 -266.8 218.6 -291 168C-315.1 117.4 -316.8 58.7 -318.5 0L0 0Z" fill="#dddcff"></path><path d="M0 303.8C-49.6 289.3 -99.2 274.9 -144 249.4C-188.8 223.9 -228.7 187.4 -249.4 144C-270.1 100.6 -271.6 50.3 -273 0L0 0Z" fill="#c5c5ff"></path><path d="M0 253.1C-41.3 241.1 -82.7 229.1 -120 207.8C-157.3 186.6 -190.6 156.2 -207.8 120C-225.1 83.8 -226.3 41.9 -227.5 0L0 0Z" fill="#acafff"></path><path d="M0 202.5C-33.1 192.9 -66.1 183.3 -96 166.3C-125.9 149.3 -152.5 124.9 -166.3 96C-180.1 67.1 -181 33.5 -182 0L0 0Z" fill="#9099ff"></path><path d="M0 151.9C-24.8 144.7 -49.6 137.4 -72 124.7C-94.4 112 -114.4 93.7 -124.7 72C-135.1 50.3 -135.8 25.1 -136.5 0L0 0Z" fill="#6e84ff"></path><path d="M0 101.3C-16.5 96.4 -33.1 91.6 -48 83.1C-62.9 74.6 -76.2 62.5 -83.1 48C-90 33.5 -90.5 16.8 -91 0L0 0Z" fill="#3f70ff"></path><path d="M0 50.6C-8.3 48.2 -16.5 45.8 -24 41.6C-31.5 37.3 -38.1 31.2 -41.6 24C-45 16.8 -45.3 8.4 -45.5 0L0 0Z" fill="#0066ff"></path></g><g transform="translate(0, 540)"><path d="M0 -361C67.1 -359.4 134.1 -357.8 190.5 -330C246.9 -302.1 292.5 -247.9 326.5 -188.5C360.5 -129.1 382.7 -64.6 405 0L0 0Z" fill="#f4f3ff"></path><path d="M0 -315.9C58.7 -314.5 117.4 -313.1 166.7 -288.7C216 -264.3 256 -216.9 285.7 -164.9C315.4 -113 334.9 -56.5 354.4 0L0 0Z" fill="#dddcff"></path><path d="M0 -270.7C50.3 -269.6 100.6 -268.4 142.9 -247.5C185.1 -226.6 219.4 -185.9 244.9 -141.4C270.3 -96.8 287 -48.4 303.8 0L0 0Z" fill="#c5c5ff"></path><path d="M0 -225.6C41.9 -224.6 83.8 -223.7 119.1 -206.2C154.3 -188.8 182.8 -154.9 204.1 -117.8C225.3 -80.7 239.2 -40.4 253.1 0L0 0Z" fill="#acafff"></path><path d="M0 -180.5C33.5 -179.7 67.1 -178.9 95.2 -165C123.4 -151 146.3 -123.9 163.2 -94.3C180.2 -64.6 191.4 -32.3 202.5 0L0 0Z" fill="#9099ff"></path><path d="M0 -135.4C25.2 -134.8 50.3 -134.2 71.4 -123.7C92.6 -113.3 109.7 -93 122.4 -70.7C135.2 -48.4 143.5 -24.2 151.9 0L0 0Z" fill="#6e84ff"></path><path d="M0 -90.2C16.8 -89.9 33.5 -89.5 47.6 -82.5C61.7 -75.5 73.1 -62 81.6 -47.1C90.1 -32.3 95.7 -16.1 101.3 0L0 0Z" fill="#3f70ff"></path><path d="M0 -45.1C8.4 -44.9 16.8 -44.7 23.8 -41.2C30.9 -37.8 36.6 -31 40.8 -23.6C45.1 -16.1 47.8 -8.1 50.6 0L0 0Z" fill="#0066ff"></path></g></svg>