<svg id="visual" viewBox="0 0 1200 540" width="1200" height="540" xmlns="http://www.w3.org/2000/svg" xmlns:xlink="http://www.w3.org/1999/xlink" version="1.1"><rect x="0" y="0" width="1200" height="540" fill="#FFFFFF"></rect><defs><linearGradient id="grad1_0" x1="55%" y1="0%" x2="100%" y2="100%"><stop offset="5.555555555555554%" stop-color="#ffffff" stop-opacity="1"></stop><stop offset="94.44444444444446%" stop-color="#ffffff" stop-opacity="1"></stop></linearGradient></defs><defs><linearGradient id="grad2_0" x1="0%" y1="0%" x2="45%" y2="100%"><stop offset="5.555555555555554%" stop-color="#ffffff" stop-opacity="1"></stop><stop offset="94.44444444444446%" stop-color="#ffffff" stop-opacity="1"></stop></linearGradient></defs><g transform="translate(1200, 0)"><path d="M0 400C-67.8 388.4 -135.5 376.8 -199.5 345.5C-263.5 314.3 -323.6 263.4 -350.7 202.5C-377.9 141.6 -371.9 70.8 -366 0L0 0Z" fill="#c0d8fd"></path></g><g transform="translate(0, 540)"><path d="M0 -405C69.3 -387 138.7 -369.1 191 -330.8C243.3 -292.6 278.6 -234 304 -175.5C329.3 -117 344.7 -58.5 360 0L0 0Z" fill="#c0d8fd"></path></g></svg>