<svg id="visual" viewBox="0 0 1200 540" width="1200" height="540" xmlns="http://www.w3.org/2000/svg" xmlns:xlink="http://www.w3.org/1999/xlink" version="1.1"><rect x="0" y="0" width="1200" height="540" fill="#F8F9FD"></rect><defs><linearGradient id="grad1_0" x1="55%" y1="0%" x2="100%" y2="100%"><stop offset="5.555555555555554%" stop-color="#f8f9fd" stop-opacity="1"></stop><stop offset="94.44444444444446%" stop-color="#f8f9fd" stop-opacity="1"></stop></linearGradient></defs><defs><linearGradient id="grad2_0" x1="0%" y1="0%" x2="45%" y2="100%"><stop offset="5.555555555555554%" stop-color="#f8f9fd" stop-opacity="1"></stop><stop offset="94.44444444444446%" stop-color="#f8f9fd" stop-opacity="1"></stop></linearGradient></defs><g transform="translate(1200, 0)"><path d="M0 405C-65.2 382.2 -130.4 359.4 -187.5 324.8C-244.6 290.1 -293.5 243.6 -324.8 187.5C-356 131.4 -369.5 65.7 -383 0L0 0Z" fill="#ECF6FF"></path></g><g transform="translate(0, 540)"><path d="M0 -402C70 -392.5 139.9 -382.9 202.5 -350.7C265.1 -318.6 320.3 -263.7 349 -201.5C377.7 -139.3 379.8 -69.6 382 0L0 0Z" fill="#ECF6FF"></path></g></svg>